<svg width="24" height="18" viewBox="0 0 24 18" fill="none" xmlns="http://www.w3.org/2000/svg">
<g clip-path="url(#clip0_192_818)">
<path d="M16.0002 10.9696L20.5202 15.4902C20.5838 15.5539 20.6594 15.6044 20.7426 15.6388C20.8258 15.6733 20.915 15.691 21.0051 15.691C21.0951 15.691 21.1843 15.6733 21.2675 15.6388C21.3507 15.6044 21.4263 15.5539 21.49 15.4902C21.5537 15.4265 21.6042 15.3509 21.6386 15.2677C21.6731 15.1845 21.6908 15.0953 21.6908 15.0053C21.6908 14.9152 21.6731 14.826 21.6386 14.7428C21.6042 14.6596 21.5537 14.584 21.49 14.5204L16.97 9.99982L21.49 5.47982C21.6174 5.35098 21.6887 5.17693 21.6882 4.99571C21.6876 4.81449 21.6154 4.64085 21.4873 4.51272C21.3591 4.38459 21.1855 4.3124 21.0042 4.31192C20.823 4.31145 20.649 4.38273 20.5202 4.51018L16.0003 9.03L11.4803 4.50947C11.3511 4.38397 11.1777 4.31436 10.9976 4.31568C10.8175 4.31699 10.6451 4.38913 10.5177 4.5165C10.3904 4.64387 10.3182 4.81624 10.3169 4.99636C10.3156 5.17648 10.3852 5.34989 10.5107 5.47911L15.0303 10L10.51 14.5204C10.4448 14.5837 10.3928 14.6593 10.3571 14.7429C10.3214 14.8265 10.3027 14.9164 10.302 15.0073C10.3014 15.0981 10.3188 15.1883 10.3532 15.2724C10.3877 15.3565 10.4386 15.4329 10.5028 15.4971C10.5671 15.5614 10.6435 15.6123 10.7276 15.6467C10.8117 15.6812 10.9018 15.6986 10.9927 15.698C11.0836 15.6973 11.1735 15.6786 11.2571 15.6429C11.3406 15.6072 11.4163 15.5552 11.4796 15.49L16.0003 10.9696H16.0002Z" fill="#26244C" fill-opacity="0.88"/>
</g>
<defs>
<clipPath id="clip0_192_818">
<rect width="16" height="16" fill="white" transform="translate(8 2)"/>
</clipPath>
</defs>
</svg>
