<svg width="16" height="16" viewBox="0 0 16 16" fill="none" xmlns="http://www.w3.org/2000/svg">
<path d="M4.35359 5.64646L8.00004 9.29291L11.6465 5.64641C11.6929 5.59998 11.748 5.56315 11.8087 5.53802C11.8694 5.5129 11.9344 5.49997 12.0001 5.49997C12.0657 5.49997 12.1307 5.51291 12.1914 5.53804C12.2521 5.56317 12.3072 5.6 12.3536 5.64643C12.4 5.69286 12.4369 5.74799 12.462 5.80865C12.4871 5.86932 12.5001 5.93434 12.5001 6C12.5 6.06566 12.4871 6.13068 12.462 6.19135C12.4369 6.25201 12.4 6.30713 12.3536 6.35356L8.35359 10.3536C8.15834 10.5488 7.84174 10.5488 7.64649 10.3536L3.64649 6.35356C3.5534 6.25965 3.5013 6.13269 3.50159 6.00046C3.50188 5.86823 3.55453 5.7415 3.64803 5.648C3.74153 5.5545 3.86826 5.50185 4.00049 5.50156C4.13272 5.50127 4.25968 5.55337 4.35359 5.64646Z" fill="#595959"/>
</svg>
