<svg width="76" height="32" viewBox="0 0 76 32" fill="none" xmlns="http://www.w3.org/2000/svg">
<path d="M13.125 10.25H10.25V13.125C10.25 13.4702 9.97019 13.75 9.625 13.75C9.27981 13.75 9 13.4702 9 13.125V9.625C9 9.27981 9.27981 9 9.625 9H13.125C13.4702 9 13.75 9.27981 13.75 9.625C13.75 9.97019 13.4702 10.25 13.125 10.25ZM13.125 21.75H10.25V18.875C10.25 18.5298 9.97019 18.25 9.625 18.25C9.27981 18.25 9 18.5298 9 18.875V22.375C9 22.7202 9.27981 23 9.625 23H13.125C13.4702 23 13.75 22.7202 13.75 22.375C13.75 22.0298 13.4702 21.75 13.125 21.75ZM18.875 10.25H21.75V13.125C21.75 13.4702 22.0298 13.75 22.375 13.75C22.7202 13.75 23 13.4702 23 13.125V9.625C23 9.27981 22.7202 9 22.375 9H18.875C18.5298 9 18.25 9.27981 18.25 9.625C18.25 9.97019 18.5298 10.25 18.875 10.25ZM18.875 21.75H21.75V18.875C21.75 18.5298 22.0298 18.25 22.375 18.25C22.7202 18.25 23 18.5298 23 18.875V22.375C23 22.7202 22.7202 23 22.375 23H18.875C18.5298 23 18.25 22.7202 18.25 22.375C18.25 22.0298 18.5298 21.75 18.875 21.75Z" fill="#26244C" fill-opacity="0.88"/>
<path d="M67.5 16C67.5 20.1421 64.1421 23.5 60 23.5C55.8579 23.5 52.5 20.1421 52.5 16C52.5 11.8579 55.8579 8.5 60 8.5C64.1421 8.5 67.5 11.8579 67.5 16ZM66.25 16C66.25 15.2052 66.1037 14.4384 65.8112 13.6994C65.4935 12.8971 65.0296 12.1907 64.4194 11.5806C63.8092 10.9704 63.1029 10.5064 62.3006 10.1888C61.5616 9.89631 60.7948 9.75 60 9.75C59.2052 9.75 58.4384 9.89625 57.6994 10.1888C56.8971 10.5064 56.1907 10.9704 55.5806 11.5806C54.9704 12.1907 54.5064 12.8971 54.1888 13.6994C53.8963 14.4384 53.75 15.2053 53.75 16C53.75 16.7948 53.8962 17.5616 54.1888 18.3006C54.5064 19.1029 54.9704 19.8092 55.5806 20.4194C56.1907 21.0296 56.8971 21.4935 57.6994 21.8112C58.4384 22.1037 59.2053 22.25 60 22.25C60.7948 22.25 61.5616 22.1037 62.3006 21.8112C63.1029 21.4935 63.8092 21.0296 64.4194 20.4194C65.0296 19.8092 65.4935 19.1029 65.8112 18.3006C66.1037 17.5616 66.25 16.7948 66.25 16Z" fill="#26244C" fill-opacity="0.88"/>
<path d="M64.125 15.75H60.5V11.875C60.5 11.5298 60.2202 11.25 59.875 11.25C59.5298 11.25 59.25 11.5298 59.25 11.875V16.375C59.25 16.7202 59.5298 17 59.875 17H64.125C64.4702 17 64.75 16.7202 64.75 16.375C64.75 16.0298 64.4702 15.75 64.125 15.75Z" fill="#26244C" fill-opacity="0.88"/>
</svg>
