<svg width="21" height="17" viewBox="0 0 21 17" fill="none" xmlns="http://www.w3.org/2000/svg">
<path d="M6.42493 16.8357C9.97342 16.8357 12.8499 13.9592 12.8499 10.4108C12.8499 6.86227 9.97342 3.98583 6.42493 3.98583C2.87644 3.98583 0 6.86227 0 10.4108C0 13.9592 2.87644 16.8357 6.42493 16.8357ZM6.42493 7.73371C6.31946 7.73371 6.21503 7.71293 6.11759 7.67257C6.02015 7.63221 5.93162 7.57305 5.85704 7.49848C5.78246 7.4239 5.72331 7.33537 5.68295 7.23793C5.64258 7.14049 5.62181 7.03606 5.62181 6.93059C5.62181 6.82512 5.64258 6.72069 5.68295 6.62325C5.72331 6.52581 5.78246 6.43728 5.85704 6.3627C5.93162 6.28812 6.02015 6.22897 6.11759 6.18861C6.21503 6.14825 6.31946 6.12747 6.42493 6.12747C6.63793 6.12747 6.8422 6.21209 6.99282 6.3627C7.14343 6.51331 7.22804 6.71759 7.22804 6.93059C7.22804 7.14359 7.14343 7.34787 6.99282 7.49848C6.8422 7.64909 6.63793 7.73371 6.42493 7.73371ZM6.05014 12.9807V9.5541H5.94306C5.80106 9.5541 5.66487 9.49769 5.56447 9.39728C5.46406 9.29687 5.40765 9.16069 5.40765 9.01869C5.40765 8.87669 5.46406 8.74051 5.56447 8.6401C5.66487 8.53969 5.80106 8.48328 5.94306 8.48328H6.53201C6.61167 8.48328 6.68813 8.49876 6.76137 8.52971C6.83202 8.55955 6.89439 8.60156 6.94849 8.65576C7.00268 8.70995 7.04469 8.77232 7.07453 8.84287C7.10549 8.91612 7.12096 8.99257 7.12096 9.07223V12.9807H7.65637C7.79837 12.9807 7.93456 13.0371 8.03496 13.1375C8.13537 13.238 8.19178 13.3741 8.19178 13.5161C8.19178 13.6581 8.13537 13.7943 8.03496 13.8947C7.93456 13.9951 7.79837 14.0516 7.65637 14.0516H5.51473C5.37273 14.0516 5.23655 13.9951 5.13614 13.8947C5.03573 13.7943 4.97932 13.6581 4.97932 13.5161C4.97932 13.3741 5.03573 13.238 5.13614 13.1375C5.23655 13.0371 5.37273 12.9807 5.51473 12.9807H6.05014Z" fill="#005EFF"/>
</svg>
