<svg width="88" height="40" viewBox="0 0 88 40" fill="none" xmlns="http://www.w3.org/2000/svg">
<rect x="0.5" y="0.5" width="87" height="39" rx="3.5" fill="white"/>
<rect x="0.5" y="0.5" width="87" height="39" rx="3.5" stroke="#E5E7EB"/>
<path d="M23.9998 28.3334C19.3975 28.3334 15.6665 24.6024 15.6665 20C15.6665 15.3976 19.3975 11.6667 23.9998 11.6667C28.6022 11.6667 32.3332 15.3976 32.3332 20C32.3332 24.6024 28.6022 28.3334 23.9998 28.3334ZM22.0915 26.3895C21.2894 24.6883 20.7976 22.8119 20.6893 20.8334H17.3847C17.7148 23.4804 19.5968 25.6456 22.0915 26.3895ZM22.3588 20.8334C22.4841 22.8657 23.0647 24.7748 23.9998 26.46C24.935 24.7748 25.5156 22.8657 25.6409 20.8334H22.3588ZM30.6149 20.8334H27.3104C27.2021 22.8119 26.7103 24.6883 25.9082 26.3895C28.4028 25.6456 30.2848 23.4804 30.6149 20.8334ZM17.3847 19.1667H20.6893C20.7976 17.1882 21.2894 15.3117 22.0915 13.6105C19.5968 14.3545 17.7148 16.5196 17.3847 19.1667ZM22.3588 19.1667H25.6409C25.5156 17.1344 24.935 15.2252 23.9998 13.54C23.0647 15.2252 22.4841 17.1344 22.3588 19.1667ZM25.9082 13.6105C26.7103 15.3117 27.2021 17.1882 27.3104 19.1667H30.6149C30.2848 16.5196 28.4028 14.3545 25.9082 13.6105Z" fill="black" fill-opacity="0.45"/>
<path d="M49.248 16.908V18.492H51.856V12.492H52.928V18.492H55.52V16.908H53.84V15.948H55.52V14.204H53.76V13.212H56.56V19.484H52.928V20.892H56.512V21.868C55.936 23.036 54.976 24.028 53.664 24.86C54.72 25.34 55.952 25.724 57.36 26.012L56.944 27.084C55.2 26.716 53.712 26.188 52.48 25.516C51.136 26.156 49.536 26.7 47.664 27.116L47.088 26.092C48.752 25.772 50.192 25.356 51.392 24.844C50.24 24.028 49.376 23.052 48.768 21.932H48.096V20.892H51.856V19.484H48.192V13.708C49.024 13.484 49.824 13.148 50.576 12.7L51.232 13.548C50.688 13.836 50.016 14.124 49.248 14.412V15.948H50.992V16.908H49.248ZM49.952 21.932C50.576 22.844 51.44 23.628 52.544 24.284C53.744 23.612 54.656 22.828 55.264 21.932H49.952ZM44.64 26.956H43.136L42.896 25.868C43.376 25.916 43.824 25.948 44.24 25.948C44.624 25.948 44.832 25.724 44.832 25.292V21.404C44.224 21.628 43.632 21.836 43.024 22.028L42.768 20.94C43.472 20.748 44.16 20.54 44.832 20.284V16.604H43.056V15.5H44.832V12.508H45.952V15.5H47.44V16.604H45.952V19.836C46.496 19.596 47.04 19.324 47.568 19.036V20.156C47.04 20.428 46.496 20.684 45.952 20.94V25.58C45.952 26.492 45.504 26.956 44.64 26.956ZM60.016 13.692H65.408V12.428H66.592V13.692H71.984V14.748H66.592V16.14H72.64V19.068H71.52V17.148H65.408L66.288 17.58C65.328 18.348 64.336 19.004 63.296 19.564C64.768 19.532 65.968 19.5 66.864 19.436C67.424 19.052 68 18.652 68.576 18.236L69.504 18.86C67.616 20.268 65.6 21.34 63.424 22.108C65.504 22.044 67.568 21.932 69.648 21.788C69.296 21.404 68.928 21.036 68.544 20.652L69.376 20.124C70.544 21.26 71.44 22.252 72.064 23.116L71.2 23.74C70.944 23.356 70.656 22.972 70.336 22.588C69.04 22.668 67.824 22.748 66.672 22.812V25.868C66.672 26.668 66.224 27.084 65.36 27.084H63.904L63.664 26.012C64.112 26.06 64.56 26.092 64.976 26.092C65.328 26.092 65.52 25.916 65.52 25.596V22.86C63.76 22.94 62.144 23.004 60.672 23.036L60.448 21.996C60.784 22.012 61.12 22.028 61.44 22.028C62.752 21.66 64.096 21.084 65.504 20.284C64.416 20.316 63.184 20.364 61.792 20.396L61.568 19.516C61.808 19.468 62.048 19.372 62.288 19.244C63.328 18.652 64.32 17.948 65.248 17.148H60.48V19.052H59.36V16.14H65.408V14.748H60.016V13.692ZM68.368 23.66C70.032 24.268 71.536 25.004 72.896 25.868L72.304 26.796C70.832 25.836 69.328 25.068 67.792 24.508L68.368 23.66ZM63.328 23.628L64 24.38C62.8 25.34 61.296 26.124 59.488 26.748L59.008 25.724C60.752 25.196 62.192 24.492 63.328 23.628Z" fill="black" fill-opacity="0.45"/>
</svg>
