<svg width="797" height="54" viewBox="0 0 797 54" fill="none" xmlns="http://www.w3.org/2000/svg">
<g filter="url(#filter0_d_192_875)">
<rect x="10.5" y="4.5" width="33" height="33" rx="16.5" stroke="#F0F0F0" shape-rendering="crispEdges"/>
<path d="M32.8284 21.7088L27.9222 26.504C27.4213 26.9935 26.8435 27.3675 26.1888 27.6259C25.5571 27.8753 24.8986 28 24.2133 28C23.5279 28 22.8694 27.8753 22.2377 27.6259C21.583 27.3675 21.0053 26.9935 20.5043 26.504C20.0118 26.0226 19.6357 25.4702 19.3762 24.847C19.1254 24.245 19 23.6184 19 22.9671C19 22.3157 19.1254 21.689 19.3761 21.087C19.6357 20.4638 20.0118 19.9115 20.5043 19.43L26.0048 14.0542C26.3577 13.7093 26.7648 13.4458 27.2263 13.2636C27.6715 13.0879 28.1355 13 28.6184 13C29.1012 13 29.5652 13.0878 30.0104 13.2635C30.4719 13.4457 30.8791 13.7093 31.232 14.0542C31.579 14.3934 31.844 14.7826 32.027 15.2219C32.2037 15.6462 32.2921 16.0877 32.2921 16.5467C32.2921 17.0056 32.2037 17.4472 32.027 17.8714C31.8441 18.3107 31.5791 18.6999 31.232 19.0391L26.2726 23.8863C26.0676 24.0866 25.831 24.2397 25.5627 24.3456C25.3041 24.4477 25.0345 24.4987 24.7542 24.4987C24.4738 24.4987 24.2042 24.4477 23.9456 24.3456C23.6774 24.2397 23.4408 24.0866 23.2358 23.8862C23.0342 23.6893 22.8803 23.4631 22.774 23.2077C22.6713 22.9612 22.6199 22.7048 22.6199 22.4383C22.6199 22.1718 22.6713 21.9153 22.774 21.6688C22.8803 21.4134 23.0343 21.1873 23.2358 20.9903L27.6538 16.6724L27.6543 16.672C27.7092 16.6183 27.7745 16.5756 27.8464 16.5464C27.9184 16.5171 27.9957 16.5018 28.0738 16.5013C28.1519 16.5008 28.2293 16.5152 28.3016 16.5436C28.374 16.5721 28.4398 16.614 28.4954 16.667C28.5509 16.7199 28.5951 16.783 28.6255 16.8525C28.6558 16.9219 28.6716 16.9965 28.6721 17.0719C28.6726 17.1473 28.6577 17.2221 28.6283 17.2919C28.5988 17.3617 28.5554 17.4253 28.5005 17.4789L28.5001 17.4793L24.0821 21.7973C23.9926 21.8847 23.9244 21.9847 23.8775 22.0973C23.8321 22.2063 23.8094 22.32 23.8094 22.4383C23.8094 22.5566 23.8321 22.6703 23.8775 22.7793C23.9244 22.8918 23.9926 22.9918 24.082 23.0793C24.173 23.1682 24.2776 23.236 24.3958 23.2827C24.5102 23.3278 24.6296 23.3504 24.7542 23.3504C24.8787 23.3504 24.9982 23.3278 25.1126 23.2827C25.2307 23.236 25.3353 23.1682 25.4264 23.0793L30.3857 18.2321C30.6207 18.0024 30.8 17.7394 30.9235 17.4429C31.0429 17.1562 31.1027 16.8574 31.1027 16.5467C31.1027 16.2359 31.0429 15.9371 30.9235 15.6504C30.8 15.3539 30.6207 15.0908 30.3858 14.8612C30.1468 14.6276 29.8716 14.4494 29.5603 14.3265C29.2593 14.2077 28.9454 14.1483 28.6184 14.1483C28.2914 14.1483 27.9774 14.2077 27.6765 14.3265C27.3651 14.4494 27.09 14.6276 26.851 14.8612L21.3506 20.237C20.9701 20.6089 20.6798 21.0351 20.4797 21.5155C20.2862 21.98 20.1894 22.4639 20.1894 22.9671C20.1894 23.4703 20.2862 23.9541 20.4797 24.4185C20.6798 24.899 20.9701 25.3251 21.3506 25.697C21.7375 26.0752 22.1833 26.3639 22.6879 26.5631C23.1753 26.7555 23.6838 26.8517 24.2133 26.8517C24.7427 26.8517 25.2512 26.7555 25.7386 26.5631C26.2432 26.3639 26.689 26.0752 27.0759 25.697L31.9821 20.9018C32.0375 20.8478 32.1034 20.8048 32.176 20.7755C32.2486 20.7463 32.3266 20.7312 32.4053 20.7312C32.7337 20.7312 33 20.9882 33 21.3053C33 21.4564 32.9383 21.6014 32.8284 21.7088Z" fill="#26244C" fill-opacity="0.88"/>
</g>
<mask id="path-4-inside-1_192_875" fill="white">
<path d="M51 21C51 12.1634 58.1634 5 67 5C75.8366 5 83 12.1634 83 21C83 29.8366 75.8366 37 67 37C58.1634 37 51 29.8366 51 21Z"/>
</mask>
<path d="M51 21C51 12.1634 58.1634 5 67 5C75.8366 5 83 12.1634 83 21C83 29.8366 75.8366 37 67 37C58.1634 37 51 29.8366 51 21Z" fill="#005EFF" fill-opacity="0.1"/>
<path d="M67 37V36C58.7157 36 52 29.2843 52 21H51H50C50 30.3888 57.6112 38 67 38V37ZM83 21H82C82 29.2843 75.2843 36 67 36V37V38C76.3888 38 84 30.3888 84 21H83ZM67 5V6C75.2843 6 82 12.7157 82 21H83H84C84 11.6112 76.3888 4 67 4V5ZM67 5V4C57.6112 4 50 11.6112 50 21H51H52C52 12.7157 58.7157 6 67 6V5Z" fill="#005EFF" fill-opacity="0.75" mask="url(#path-4-inside-1_192_875)"/>
<path d="M59.5 21C59.5 19.983 59.6966 19.0099 60.0896 18.0804C60.4692 17.1831 61.0049 16.3886 61.6967 15.6967C62.3886 15.0049 63.1831 14.4692 64.0804 14.0896C65.0098 13.6965 65.983 13.5 67 13.5C68.0169 13.5 68.9901 13.6966 69.9195 14.0896C70.8169 14.4692 71.6115 15.0049 72.3033 15.6967C72.9951 16.3886 73.5308 17.1831 73.9104 18.0804C74.3034 19.0098 74.5 19.983 74.5 21C74.5 22.0169 74.3034 22.9901 73.9104 23.9195C73.5308 24.8169 72.9951 25.6115 72.3033 26.3033C71.6115 26.9951 70.8169 27.5308 69.9195 27.9104C68.9901 28.3034 68.0169 28.5 67 28.5C65.983 28.5 65.0099 28.3034 64.0804 27.9104C63.1831 27.5308 62.3886 26.9951 61.6967 26.3033C61.0049 25.6115 60.4692 24.8169 60.0896 23.9195C59.6965 22.9901 59.5 22.0169 59.5 21ZM60.75 21C60.75 21.848 60.9136 22.6589 61.2409 23.4326C61.5571 24.1802 62.0037 24.8425 62.5806 25.4194C63.1574 25.9963 63.8197 26.4429 64.5674 26.7591C65.3412 27.0864 66.1519 27.25 67 27.25C67.848 27.25 68.6589 27.0864 69.4326 26.7591C70.1802 26.4429 70.8425 25.9963 71.4194 25.4194C71.9963 24.8425 72.4429 24.1802 72.7591 23.4326C73.0864 22.6589 73.25 21.848 73.25 21C73.25 20.152 73.0864 19.3411 72.7591 18.5674C72.4429 17.8197 71.9963 17.1574 71.4194 16.5806C70.8425 16.0037 70.1802 15.5571 69.4326 15.2409C68.6589 14.9136 67.848 14.75 67 14.75C66.152 14.75 65.3411 14.9136 64.5674 15.2409C63.8197 15.5571 63.1574 16.0037 62.5806 16.5806C62.0037 17.1574 61.5571 17.8197 61.2409 18.5674C60.9136 19.3412 60.75 20.1519 60.75 21Z" fill="#005EFF"/>
<path d="M63.625 21C63.625 20.0325 63.7 19.1058 63.8499 18.2197C63.9964 17.3533 64.2049 16.5822 64.4751 15.9066C64.7584 15.1984 65.0919 14.6415 65.4755 14.2358C65.6914 14.0075 65.92 13.8316 66.1611 13.7083C66.4325 13.5694 66.7121 13.5 67 13.5C67.2879 13.5 67.5675 13.5694 67.8389 13.7082C68.08 13.8316 68.3086 14.0075 68.5245 14.2358C68.9081 14.6414 69.2416 15.1983 69.5248 15.9065C69.7951 16.5822 70.0036 17.3533 70.1501 18.2196C70.3001 19.1058 70.375 20.0325 70.375 21C70.375 21.9674 70.3001 22.8942 70.1501 23.7803C70.0036 24.6467 69.7951 25.4178 69.5248 26.0935C69.2416 26.8016 68.9081 27.3585 68.5245 27.7642C68.3086 27.9925 68.08 28.1684 67.8389 28.2917C67.5675 28.4306 67.2879 28.5 67 28.5C66.7121 28.5 66.4325 28.4306 66.1611 28.2917C65.92 28.1684 65.6914 27.9925 65.4755 27.7642C65.0919 27.3585 64.7584 26.8016 64.4751 26.0935C64.2049 25.4178 63.9964 24.6467 63.8499 23.7803C63.6999 22.8942 63.625 21.9674 63.625 21ZM64.875 21C64.875 21.8974 64.9441 22.7548 65.0824 23.5718C65.2141 24.3504 65.3986 25.0362 65.6357 25.6292C65.86 26.1898 66.1092 26.6151 66.3837 26.9053C66.601 27.1351 66.8064 27.25 67 27.25C67.1936 27.25 67.399 27.1351 67.6163 26.9053C67.8907 26.6151 68.1401 26.1898 68.3643 25.6292C68.6014 25.0362 68.7859 24.3504 68.9176 23.5718C69.0559 22.7548 69.125 21.8975 69.125 21C69.125 20.1025 69.0559 19.2453 68.9176 18.4282C68.7859 17.6496 68.6014 16.9638 68.3643 16.3707C68.14 15.8102 67.8907 15.3849 67.6163 15.0947C67.399 14.8649 67.1936 14.75 67 14.75C66.8064 14.75 66.601 14.8649 66.3837 15.0947C66.1093 15.3849 65.8599 15.8102 65.6357 16.3707C65.3986 16.9637 65.2141 17.6496 65.0824 18.4282C64.9441 19.2452 64.875 20.1025 64.875 21Z" fill="#005EFF"/>
<path d="M60.125 23.5C60.125 23.1548 60.4048 22.875 60.75 22.875H73.25C73.5952 22.875 73.875 23.1548 73.875 23.5C73.875 23.8452 73.5952 24.125 73.25 24.125H60.75C60.4048 24.125 60.125 23.8452 60.125 23.5ZM60.4375 18.5C60.4375 18.1548 60.7173 17.875 61.0625 17.875H72.9375C73.2827 17.875 73.5625 18.1548 73.5625 18.5C73.5625 18.8452 73.2827 19.125 72.9375 19.125H61.0625C60.7173 19.125 60.4375 18.8452 60.4375 18.5Z" fill="#005EFF"/>
<path d="M765 21C765 12.1634 772.163 5 781 5C789.837 5 797 12.1634 797 21C797 29.8366 789.837 37 781 37C772.163 37 765 29.8366 765 21Z" fill="#D9D9D9"/>
<path d="M781.6 17.2984L785.376 21.0742C785.488 21.1867 785.641 21.2499 785.8 21.2499C785.959 21.2499 786.112 21.1867 786.224 21.0742C786.337 20.9617 786.4 20.8091 786.4 20.65C786.4 20.4909 786.337 20.3383 786.224 20.2258L781.424 15.4258C781.336 15.3375 781.223 15.2789 781.1 15.2583C781.013 15.2436 780.923 15.2484 780.838 15.2722C780.739 15.2998 780.648 15.3527 780.576 15.4256L775.776 20.2256C775.663 20.3381 775.6 20.4908 775.6 20.6499C775.6 20.8091 775.663 20.9617 775.776 21.0742C775.888 21.1867 776.041 21.25 776.2 21.25C776.359 21.25 776.512 21.1867 776.624 21.0742L780.4 17.2984V26.17C780.4 26.3291 780.463 26.4817 780.576 26.5943C780.688 26.7068 780.841 26.77 781 26.77C781.159 26.77 781.312 26.7068 781.424 26.5943C781.537 26.4817 781.6 26.3291 781.6 26.17V17.2984Z" fill="white"/>
<defs>
<filter id="filter0_d_192_875" x="0" y="0" width="54" height="54" filterUnits="userSpaceOnUse" color-interpolation-filters="sRGB">
<feFlood flood-opacity="0" result="BackgroundImageFix"/>
<feColorMatrix in="SourceAlpha" type="matrix" values="0 0 0 0 0 0 0 0 0 0 0 0 0 0 0 0 0 0 127 0" result="hardAlpha"/>
<feOffset dy="6"/>
<feGaussianBlur stdDeviation="5"/>
<feComposite in2="hardAlpha" operator="out"/>
<feColorMatrix type="matrix" values="0 0 0 0 0 0 0 0 0 0 0 0 0 0 0 0 0 0 0.18 0"/>
<feBlend mode="normal" in2="BackgroundImageFix" result="effect1_dropShadow_192_875"/>
<feBlend mode="normal" in="SourceGraphic" in2="effect1_dropShadow_192_875" result="shape"/>
</filter>
</defs>
</svg>
