<svg width="24" height="24" viewBox="0 0 24 24" fill="none" xmlns="http://www.w3.org/2000/svg">
<g clip-path="url(#clip0_192_836)">
<g clip-path="url(#clip1_192_836)">
<g clip-path="url(#clip2_192_836)">
<mask id="mask0_192_836" style="mask-type:luminance" maskUnits="userSpaceOnUse" x="0" y="0" width="24" height="24">
<path d="M24 0H0V24H24V0Z" fill="white"/>
</mask>
<g mask="url(#mask0_192_836)">
<path d="M9.66686 3.83643L10.8337 5.87748L9.66686 7.91853H19.0016L17.8347 9.95876H8.73323L7.44897 7.71409L9.66686 3.83643Z" fill="white"/>
<path d="M4.99945 7.91785H7.33313L11.8831 15.8784L10.5996 18.1239L6.16629 18.1223L7.33313 16.0812L9.66681 16.082L4.99945 7.91785Z" fill="white"/>
<path d="M10.8329 18.1224L11.9997 20.1634L16.6671 12.0001L17.8331 14.0411H20.1676L17.9513 10.1635L15.3844 10.1643L10.8329 18.1224Z" fill="white"/>
<path d="M9.66686 3.83643L10.8337 5.87748L9.66686 7.91853H19.0016L17.8347 9.95876H8.73323L7.44897 7.71409L9.66686 3.83643Z" fill="url(#paint0_linear_192_836)"/>
<path d="M6.16629 18.123L7.33313 16.082H9.66681L4.99945 7.91858H7.33232L11.8831 15.8783L10.5996 18.1238L6.16629 18.123Z" fill="url(#paint1_linear_192_836)"/>
<path d="M20.1685 14.0411H17.834L16.6679 12.0001L12.0006 20.1643L10.8337 18.124L15.3845 10.1643L17.9514 10.1635L20.1685 14.0411Z" fill="url(#paint2_linear_192_836)"/>
<path d="M20.5174 13.8365L18.5343 10.3677L18.3012 9.95884L19.3514 8.12304C19.3878 8.06007 19.4056 7.98975 19.4056 7.91861C19.4056 7.84747 19.3878 7.77714 19.3514 7.71418L18.1845 5.67313C18.1481 5.61016 18.0971 5.55946 18.0363 5.52348C17.9764 5.48832 17.906 5.46869 17.8339 5.46869H13.3998L12.3495 3.63207C12.2775 3.50614 12.1438 3.42764 11.9997 3.42764H9.66604C9.59397 3.42764 9.52433 3.44727 9.46441 3.48243C9.40368 3.51759 9.35267 3.56911 9.31623 3.63207L7.33236 7.1017L7.09915 7.50893H4.99868C4.92661 7.50893 4.85697 7.52855 4.79705 7.56371C4.73632 7.59887 4.6845 7.65039 4.64887 7.71336L3.48284 9.75441C3.4464 9.81737 3.42859 9.8877 3.42859 9.95884C3.42859 10.03 3.4464 10.1003 3.48284 10.1633L5.69992 14.041L4.64968 15.8776C4.61324 15.9405 4.59543 16.0108 4.59543 16.082C4.59543 16.1531 4.61324 16.2235 4.64968 16.2864L5.81652 18.3274C5.85296 18.3904 5.90397 18.4411 5.96471 18.4771C6.02543 18.5123 6.09507 18.5319 6.16714 18.5319H10.6005L11.6507 20.3685C11.7228 20.4945 11.8564 20.5721 12.0006 20.5729H14.3342C14.4063 20.5729 14.4759 20.5534 14.5366 20.5182C14.5965 20.483 14.6484 20.4315 14.6848 20.3685L16.9019 16.4908H19.0023C19.0744 16.4908 19.1441 16.4713 19.2048 16.4361C19.2648 16.4009 19.3166 16.3494 19.353 16.2864L20.5198 14.2453C20.5563 14.1824 20.5741 14.1121 20.5741 14.041C20.5741 13.9698 20.5563 13.8994 20.5198 13.8365H20.5174ZM9.66685 3.83651L10.8337 5.87756L9.66685 7.91779H19.0016L17.8347 9.95802H8.73321L7.44896 7.71336L9.66685 3.83651ZM10.5997 18.1239L6.16633 18.1222L7.33317 16.0812H9.66685L4.99949 7.91779H7.33317L8.50001 9.95884L11.8831 15.8784L10.6005 18.1239H10.5997ZM17.8331 14.041L16.6671 11.9999L11.9997 20.1633L10.8329 18.1222L12.0006 16.082L15.3844 10.1641H17.9514L20.1676 14.041H17.8331Z" fill="url(#paint3_linear_192_836)"/>
<path d="M20.5174 13.8365L18.5343 10.3677L18.3012 9.95884L19.3514 8.12304C19.3878 8.06007 19.4056 7.98975 19.4056 7.91861C19.4056 7.84747 19.3878 7.77714 19.3514 7.71418L18.1845 5.67313C18.1481 5.61016 18.0971 5.55946 18.0363 5.52348C17.9764 5.48832 17.906 5.46869 17.8339 5.46869H13.3998L12.3495 3.63207C12.2775 3.50614 12.1438 3.42764 11.9997 3.42764H9.66604C9.59397 3.42764 9.52433 3.44727 9.46441 3.48243C9.40368 3.51759 9.35267 3.56911 9.31623 3.63207L7.33236 7.1017L7.09915 7.50893H4.99868C4.92661 7.50893 4.85697 7.52855 4.79705 7.56371C4.73632 7.59887 4.6845 7.65039 4.64887 7.71336L3.48284 9.75441C3.4464 9.81737 3.42859 9.8877 3.42859 9.95884C3.42859 10.03 3.4464 10.1003 3.48284 10.1633L5.69992 14.041L4.64968 15.8776C4.61324 15.9405 4.59543 16.0108 4.59543 16.082C4.59543 16.1531 4.61324 16.2235 4.64968 16.2864L5.81652 18.3274C5.85296 18.3904 5.90397 18.4411 5.96471 18.4771C6.02543 18.5123 6.09507 18.5319 6.16714 18.5319H10.6005L11.6507 20.3685C11.7228 20.4945 11.8564 20.5721 12.0006 20.5729H14.3342C14.4063 20.5729 14.4759 20.5534 14.5366 20.5182C14.5965 20.483 14.6484 20.4315 14.6848 20.3685L16.9019 16.4908H19.0023C19.0744 16.4908 19.1441 16.4713 19.2048 16.4361C19.2648 16.4009 19.3166 16.3494 19.353 16.2864L20.5198 14.2453C20.5563 14.1824 20.5741 14.1121 20.5741 14.041C20.5741 13.9698 20.5563 13.8994 20.5198 13.8365H20.5174ZM9.66685 3.83651L10.8337 5.87756L9.66685 7.91779H19.0016L17.8347 9.95802H8.73321L7.44896 7.71336L9.66685 3.83651ZM10.5997 18.1239L6.16633 18.1222L7.33317 16.0812H9.66685L4.99949 7.91779H7.33317L8.50001 9.95884L11.8831 15.8784L10.6005 18.1239H10.5997ZM17.8331 14.041L16.6671 11.9999L11.9997 20.1633L10.8329 18.1222L12.0006 16.082L15.3844 10.1641H17.9514L20.1676 14.041H17.8331Z" fill="url(#paint4_linear_192_836)"/>
<path d="M20.5174 13.8365L18.5343 10.3677L18.3012 9.95884L19.3514 8.12304C19.3878 8.06007 19.4056 7.98975 19.4056 7.91861C19.4056 7.84747 19.3878 7.77714 19.3514 7.71418L18.1845 5.67313C18.1481 5.61016 18.0971 5.55946 18.0363 5.52348C17.9764 5.48832 17.906 5.46869 17.8339 5.46869H13.3998L12.3495 3.63207C12.2775 3.50614 12.1438 3.42764 11.9997 3.42764H9.66604C9.59397 3.42764 9.52433 3.44727 9.46441 3.48243C9.40368 3.51759 9.35267 3.56911 9.31623 3.63207L7.33236 7.1017L7.09915 7.50893H4.99868C4.92661 7.50893 4.85697 7.52855 4.79705 7.56371C4.73632 7.59887 4.6845 7.65039 4.64887 7.71336L3.48284 9.75441C3.4464 9.81737 3.42859 9.8877 3.42859 9.95884C3.42859 10.03 3.4464 10.1003 3.48284 10.1633L5.69992 14.041L4.64968 15.8776C4.61324 15.9405 4.59543 16.0108 4.59543 16.082C4.59543 16.1531 4.61324 16.2235 4.64968 16.2864L5.81652 18.3274C5.85296 18.3904 5.90397 18.4411 5.96471 18.4771C6.02543 18.5123 6.09507 18.5319 6.16714 18.5319H10.6005L11.6507 20.3685C11.7228 20.4945 11.8564 20.5721 12.0006 20.5729H14.3342C14.4063 20.5729 14.4759 20.5534 14.5366 20.5182C14.5965 20.483 14.6484 20.4315 14.6848 20.3685L16.9019 16.4908H19.0023C19.0744 16.4908 19.1441 16.4713 19.2048 16.4361C19.2648 16.4009 19.3166 16.3494 19.353 16.2864L20.5198 14.2453C20.5563 14.1824 20.5741 14.1121 20.5741 14.041C20.5741 13.9698 20.5563 13.8994 20.5198 13.8365H20.5174ZM9.66685 3.83651L10.8337 5.87756L9.66685 7.91779H19.0016L17.8347 9.95802H8.73321L7.44896 7.71336L9.66685 3.83651ZM10.5997 18.1239L6.16633 18.1222L7.33317 16.0812H9.66685L4.99949 7.91779H7.33317L8.50001 9.95884L11.8831 15.8784L10.6005 18.1239H10.5997ZM17.8331 14.041L16.6671 11.9999L11.9997 20.1633L10.8329 18.1222L12.0006 16.082L15.3844 10.1641H17.9514L20.1676 14.041H17.8331Z" fill="url(#paint5_linear_192_836)"/>
</g>
</g>
</g>
</g>
<defs>
<linearGradient id="paint0_linear_192_836" x1="8.67493" y1="9.85736" x2="17.2509" y2="4.85694" gradientUnits="userSpaceOnUse">
<stop stop-color="#6964ED" stop-opacity="0.53"/>
<stop offset="0.01" stop-color="#8884F1" stop-opacity="0.62"/>
<stop offset="0.03" stop-color="#A4A2F4" stop-opacity="0.72"/>
<stop offset="0.04" stop-color="#BDBBF7" stop-opacity="0.79"/>
<stop offset="0.06" stop-color="#D2D0F9" stop-opacity="0.86"/>
<stop offset="0.07" stop-color="#E2E1FB" stop-opacity="0.91"/>
<stop offset="0.09" stop-color="#EFEFFD" stop-opacity="0.95"/>
<stop offset="0.12" stop-color="#F8F8FE" stop-opacity="0.98"/>
<stop offset="0.15" stop-color="#FDFDFE"/>
<stop offset="0.25" stop-color="white"/>
</linearGradient>
<linearGradient id="paint1_linear_192_836" x1="11.8252" y1="15.9808" x2="3.24972" y2="10.9804" gradientUnits="userSpaceOnUse">
<stop stop-color="#6964ED" stop-opacity="0.53"/>
<stop offset="0.01" stop-color="#8884F1" stop-opacity="0.62"/>
<stop offset="0.03" stop-color="#A4A2F4" stop-opacity="0.72"/>
<stop offset="0.04" stop-color="#BDBBF7" stop-opacity="0.79"/>
<stop offset="0.06" stop-color="#D2D0F9" stop-opacity="0.86"/>
<stop offset="0.07" stop-color="#E2E1FB" stop-opacity="0.91"/>
<stop offset="0.09" stop-color="#EFEFFD" stop-opacity="0.95"/>
<stop offset="0.12" stop-color="#F8F8FE" stop-opacity="0.98"/>
<stop offset="0.15" stop-color="#FDFDFE"/>
<stop offset="0.25" stop-color="white"/>
</linearGradient>
<linearGradient id="paint2_linear_192_836" x1="15.5011" y1="10.1635" x2="15.5011" y2="20.1643" gradientUnits="userSpaceOnUse">
<stop stop-color="#6964ED" stop-opacity="0.53"/>
<stop offset="0.01" stop-color="#8884F1" stop-opacity="0.62"/>
<stop offset="0.03" stop-color="#A4A2F4" stop-opacity="0.72"/>
<stop offset="0.04" stop-color="#BDBBF7" stop-opacity="0.79"/>
<stop offset="0.06" stop-color="#D2D0F9" stop-opacity="0.86"/>
<stop offset="0.07" stop-color="#E2E1FB" stop-opacity="0.91"/>
<stop offset="0.09" stop-color="#EFEFFD" stop-opacity="0.95"/>
<stop offset="0.12" stop-color="#F8F8FE" stop-opacity="0.98"/>
<stop offset="0.15" stop-color="#FDFDFE"/>
<stop offset="0.25" stop-color="white"/>
</linearGradient>
<linearGradient id="paint3_linear_192_836" x1="19.3514" y1="7.71417" x2="4.6497" y2="16.2856" gradientUnits="userSpaceOnUse">
<stop stop-color="#615CED"/>
<stop offset="0.17" stop-color="#6156EC"/>
<stop offset="0.38" stop-color="#6147E9"/>
<stop offset="0.61" stop-color="#632DE4"/>
<stop offset="0.62" stop-color="#632DE4"/>
</linearGradient>
<linearGradient id="paint4_linear_192_836" x1="3.42859" y1="11.9999" x2="20.5717" y2="11.9999" gradientUnits="userSpaceOnUse">
<stop stop-color="#615CED"/>
<stop offset="0.04" stop-color="#615CED" stop-opacity="0.96"/>
<stop offset="0.09" stop-color="#615CED" stop-opacity="0.86"/>
<stop offset="0.17" stop-color="#615CED" stop-opacity="0.69"/>
<stop offset="0.25" stop-color="#615CED" stop-opacity="0.46"/>
<stop offset="0.35" stop-color="#615CED" stop-opacity="0.16"/>
<stop offset="0.4" stop-color="#615CED" stop-opacity="0"/>
</linearGradient>
<linearGradient id="paint5_linear_192_836" x1="16.2857" y1="4.50377" x2="7.7146" y2="19.496" gradientUnits="userSpaceOnUse">
<stop stop-color="#A29FFF"/>
<stop offset="0.05" stop-color="#9895F4" stop-opacity="0.79"/>
<stop offset="0.12" stop-color="#8784F1" stop-opacity="0.55"/>
<stop offset="0.19" stop-color="#7975F0" stop-opacity="0.35"/>
<stop offset="0.25" stop-color="#6F6AEE" stop-opacity="0.2"/>
<stop offset="0.31" stop-color="#6762ED" stop-opacity="0.09"/>
<stop offset="0.36" stop-color="#625DED" stop-opacity="0.02"/>
<stop offset="0.4" stop-color="#615CED" stop-opacity="0"/>
</linearGradient>
<clipPath id="clip0_192_836">
<rect width="24" height="24" fill="white"/>
</clipPath>
<clipPath id="clip1_192_836">
<rect width="24" height="24" fill="white"/>
</clipPath>
<clipPath id="clip2_192_836">
<rect width="24" height="24" fill="white"/>
</clipPath>
</defs>
</svg>
