<svg width="24" height="24" viewBox="0 0 24 24" fill="none" xmlns="http://www.w3.org/2000/svg">
<path d="M12 15C13.6569 15 15 13.6569 15 12C15 10.3431 13.6569 9 12 9C10.3431 9 9 10.3431 9 12C9 13.6569 10.3431 15 12 15Z" stroke="#4E5969" stroke-width="2" stroke-linecap="round" stroke-linejoin="round"/>
<path d="M19.4 15C19.4 15 20.7556 15.3571 21.2889 14.4444C21.8222 13.5317 21.2889 12.0635 21.2889 12.0635C21.2889 12.0635 21.8222 10.5952 21.2889 9.68254C20.7556 8.76984 19.4 9.12698 19.4 9.12698C19.4 9.12698 18.6889 7.93651 18.6889 6.74603C18.6889 5.55556 20.0222 4.96032 19.4889 4.04762C18.9556 3.13492 17.5333 3.73016 17.5333 3.73016C17.5333 3.73016 16.4667 3.13492 15.7556 2.18254C15.0444 1.23016 14.3333 2.42063 13.2667 2.42063C12.2 2.42063 12 1 12 1C12 1 11.8 2.42063 10.7333 2.42063C9.66667 2.42063 8.95556 1.23016 8.24444 2.18254C7.53333 3.13492 6.46667 3.73016 6.46667 3.73016C6.46667 3.73016 5.04444 3.13492 4.51111 4.04762C3.97778 4.96032 5.31111 5.55556 5.31111 6.74603C5.31111 7.93651 4.6 9.12698 4.6 9.12698C4.6 9.12698 3.24444 8.76984 2.71111 9.68254C2.17778 10.5952 2.71111 12.0635 2.71111 12.0635C2.71111 12.0635 2.17778 13.5317 2.71111 14.4444C3.24444 15.3571 4.6 15 4.6 15C4.6 15 5.31111 16.1905 5.31111 17.381C5.31111 18.5714 3.97778 19.1667 4.51111 20.0794C5.04444 20.9921 6.46667 20.3968 6.46667 20.3968C6.46667 20.3968 7.53333 20.9921 8.24444 21.9444C8.95556 22.8968 9.66667 21.7063 10.7333 21.7063C11.8 21.7063 12 23.127 12 23.127C12 23.127 12.2 21.7063 13.2667 21.7063C14.3333 21.7063 15.0444 22.8968 15.7556 21.9444C16.4667 20.9921 17.5333 20.3968 17.5333 20.3968C17.5333 20.3968 18.9556 20.9921 19.4889 20.0794C20.0222 19.1667 18.6889 18.5714 18.6889 17.381C18.6889 16.1905 19.4 15 19.4 15Z" stroke="#4E5969" stroke-width="2" stroke-linecap="round" stroke-linejoin="round"/>
</svg>