<svg width="16" height="16" viewBox="0 0 16 16" fill="none" xmlns="http://www.w3.org/2000/svg">
<path d="M4.35359 5.64645L8.00004 9.2929L11.6465 5.6464C11.6929 5.59997 11.748 5.56314 11.8087 5.53802C11.8694 5.51289 11.9344 5.49996 12.0001 5.49996C12.0657 5.49996 12.1307 5.5129 12.1914 5.53803C12.2521 5.56316 12.3072 5.59999 12.3536 5.64642C12.4 5.69286 12.4369 5.74798 12.462 5.80864C12.4871 5.86931 12.5001 5.93433 12.5001 5.99999C12.5 6.06565 12.4871 6.13067 12.462 6.19134C12.4369 6.252 12.4 6.30712 12.3536 6.35355L8.35359 10.3535C8.15834 10.5488 7.84174 10.5488 7.64649 10.3535L3.64649 6.35355C3.5534 6.25964 3.5013 6.13268 3.50159 6.00045C3.50188 5.86822 3.55453 5.74149 3.64803 5.64799C3.74153 5.55449 3.86826 5.50184 4.00049 5.50155C4.13272 5.50126 4.25968 5.55336 4.35359 5.64645Z" fill="#595959"/>
</svg>
