<svg width="26" height="22" viewBox="0 0 26 22" fill="none" xmlns="http://www.w3.org/2000/svg">
<g clip-path="url(#clip0_377_17618)">
<path d="M13.8091 8.41875L13.6447 8.79587C13.5244 9.07195 13.1426 9.07195 13.0222 8.79587L12.8579 8.41875C12.5649 7.74632 12.0372 7.21095 11.3786 6.91806L10.8722 6.69282C10.5984 6.57103 10.5984 6.17255 10.8722 6.05075L11.3503 5.8381C12.0258 5.53768 12.563 4.98249 12.8509 4.28723L13.0197 3.87969C13.1374 3.59566 13.5296 3.59566 13.6472 3.87969L13.816 4.28723C14.104 4.98249 14.6412 5.53768 15.3167 5.8381L15.7948 6.05075C16.0686 6.17255 16.0686 6.57103 15.7948 6.69282L15.2884 6.91806C14.6298 7.21095 14.1021 7.74632 13.8091 8.41875ZM1.9947 5.00001H9.3335V6.33334H2.66683V15.6667H13.3335V10.3333H14.6668V16.3377C14.6668 16.7035 14.3633 17 14.0056 17H1.9947C1.62953 17 1.3335 16.7034 1.3335 16.3377V5.66227C1.3335 5.29651 1.63704 5.00001 1.9947 5.00001ZM7.08143 8.60973L10.334 10.7781C10.4566 10.8598 10.4897 11.0254 10.408 11.1479C10.3884 11.1772 10.3633 11.2023 10.334 11.2219L7.08143 13.3903C6.9589 13.472 6.7933 13.4389 6.71163 13.3163C6.68243 13.2725 6.66683 13.2211 6.66683 13.1684V8.83161C6.66683 8.68433 6.78623 8.56495 6.9335 8.56495C6.98616 8.56495 7.03763 8.58053 7.08143 8.60973Z" fill="black" fill-opacity="0.65"/>
</g>
<defs>
<clipPath id="clip0_377_17618">
<rect width="16" height="16" fill="white" transform="translate(0 3)"/>
</clipPath>
</defs>
</svg>
