<svg width="26" height="22" viewBox="0 0 26 22" fill="none" xmlns="http://www.w3.org/2000/svg">
<path d="M14.4304 9.38565L14.6097 8.98968C14.9294 8.28363 15.5051 7.72149 16.2235 7.41396L16.7759 7.17745C17.0747 7.04957 17.0747 6.63117 16.7759 6.50328L16.2544 6.28C15.5175 5.96456 14.9315 5.38161 14.6173 4.65158L14.4332 4.22367C14.3049 3.92544 13.8769 3.92544 13.7486 4.22367L13.5644 4.65158C13.2503 5.38161 12.6643 5.96456 11.9274 6.28L11.4058 6.50328C11.1071 6.63117 11.1071 7.04957 11.4058 7.17745L11.9583 7.41396C12.6767 7.72149 13.2524 8.28363 13.5721 8.98968L13.7513 9.38565C13.8826 9.67554 14.2992 9.67554 14.4304 9.38565ZM1 6.1C1 5.7134 1.32561 5.4 1.72727 5.4H9.72727V6.8H2.45455V16.6H14.0909V11H15.5455V17.3C15.5455 17.6866 15.2199 18 14.8182 18H1.72727C1.32561 18 1 17.6866 1 17.3V6.1ZM4.63636 8.9H11.9091V11H10.4545V10.3H9V13.1H10.0909V14.5H6.45455V13.1H7.54545V10.3H6.09091V11H4.63636V8.9Z" fill="#4F3CD8"/>
</svg>
