<svg width="26" height="22" viewBox="0 0 26 22" fill="none" xmlns="http://www.w3.org/2000/svg">
<g clip-path="url(#clip0_377_17611)">
<path d="M13.8091 8.41875L13.6447 8.79587C13.5244 9.07195 13.1426 9.07195 13.0222 8.79587L12.8579 8.41875C12.5649 7.74632 12.0372 7.21095 11.3786 6.91806L10.8722 6.69282C10.5984 6.57103 10.5984 6.17255 10.8722 6.05075L11.3503 5.8381C12.0258 5.53768 12.563 4.98249 12.8509 4.28723L13.0197 3.87969C13.1374 3.59566 13.5296 3.59566 13.6472 3.87969L13.816 4.28723C14.104 4.98249 14.6412 5.53768 15.3167 5.8381L15.7948 6.05075C16.0686 6.17255 16.0686 6.57103 15.7948 6.69282L15.2884 6.91806C14.6298 7.21095 14.1021 7.74632 13.8091 8.41875ZM1.9947 5.00001H9.3335V6.33334H2.66683V15.6667L9.3335 9.00001L13.3335 13V10.3333H14.6668V16.3377C14.6668 16.7035 14.3633 17 14.0056 17H1.9947C1.62953 17 1.3335 16.7034 1.3335 16.3377V5.66227C1.3335 5.29651 1.63704 5.00001 1.9947 5.00001ZM13.3335 14.8856L9.3335 10.8856L4.55245 15.6667H13.3335V14.8856ZM5.3335 10.3333C4.59712 10.3333 4.00016 9.73641 4.00016 9.00001C4.00016 8.26363 4.59712 7.66667 5.3335 7.66667C6.06988 7.66667 6.66683 8.26363 6.66683 9.00001C6.66683 9.73641 6.06988 10.3333 5.3335 10.3333Z" fill="black" fill-opacity="0.65"/>
</g>
<defs>
<clipPath id="clip0_377_17611">
<rect width="16" height="16" fill="white" transform="translate(0 3)"/>
</clipPath>
</defs>
</svg>
