<svg width="26" height="22" viewBox="0 0 26 22" fill="none" xmlns="http://www.w3.org/2000/svg">
<path d="M1 7.31579C1 9.14705 2.48453 10.6316 4.31579 10.6316C6.14705 10.6316 7.63158 9.14705 7.63158 7.31579C7.63158 5.48453 6.14705 4 4.31579 4C2.48453 4 1 5.48453 1 7.31579ZM1 14.6842C1 16.5155 2.48453 18 4.31579 18C6.14705 18 7.63158 16.5155 7.63158 14.6842C7.63158 12.8529 6.14705 11.3684 4.31579 11.3684C2.48453 11.3684 1 12.8529 1 14.6842ZM8.36842 14.6842C8.36842 16.5155 9.85294 18 11.6842 18C13.5155 18 15 16.5155 15 14.6842C15 12.8529 13.5155 11.3684 11.6842 11.3684C9.85294 11.3684 8.36842 12.8529 8.36842 14.6842ZM6.1579 7.31579C6.1579 8.33315 5.33316 9.15789 4.31579 9.15789C3.29843 9.15789 2.47369 8.33315 2.47369 7.31579C2.47369 6.29842 3.29843 5.47368 4.31579 5.47368C5.33316 5.47368 6.1579 6.29842 6.1579 7.31579ZM6.1579 14.6842C6.1579 15.7016 5.33316 16.5263 4.31579 16.5263C3.29843 16.5263 2.47369 15.7016 2.47369 14.6842C2.47369 13.6669 3.29843 12.8421 4.31579 12.8421C5.33316 12.8421 6.1579 13.6669 6.1579 14.6842ZM13.5263 14.6842C13.5263 15.7016 12.7016 16.5263 11.6842 16.5263C10.6669 16.5263 9.84211 15.7016 9.84211 14.6842C9.84211 13.6669 10.6669 12.8421 11.6842 12.8421C12.7016 12.8421 13.5263 13.6669 13.5263 14.6842ZM12.0712 10.3774L12.2756 9.90844C12.6399 9.07241 13.2961 8.40675 14.1149 8.0426L14.7446 7.76254C15.0851 7.61112 15.0851 7.11566 14.7446 6.96423L14.1502 6.69983C13.3103 6.32631 12.6423 5.63602 12.2842 4.77156L12.0744 4.26486C11.928 3.91171 11.4403 3.91171 11.2941 4.26486L11.0841 4.77156C10.7261 5.63602 10.0581 6.32631 9.2183 6.69983L8.62381 6.96423C8.28332 7.11566 8.28332 7.61112 8.62381 7.76254L9.25344 8.0426C10.0723 8.40675 10.7285 9.07241 11.0928 9.90844L11.2972 10.3774C11.4468 10.7207 11.9216 10.7207 12.0712 10.3774Z" fill="black" fill-opacity="0.65"/>
</svg>
