<svg width="18" height="18" viewBox="0 0 18 18" fill="none" xmlns="http://www.w3.org/2000/svg">
<path d="M4.89796 6.35227L9.00021 10.4545L13.1025 6.35221C13.1547 6.29998 13.2167 6.25855 13.285 6.23028C13.3532 6.20201 13.4264 6.18747 13.5002 6.18747C13.5741 6.18747 13.6472 6.20202 13.7155 6.2303C13.7837 6.25857 13.8458 6.3 13.898 6.35224C13.9502 6.40448 13.9916 6.46649 14.0199 6.53474C14.0482 6.60299 14.0627 6.67613 14.0627 6.75C14.0627 6.82387 14.0482 6.89702 14.0199 6.96527C13.9916 7.03351 13.9502 7.09552 13.898 7.14776L9.39796 11.6478C9.1783 11.8674 8.82212 11.8674 8.60247 11.6478L4.10247 7.14776C3.99774 7.04211 3.93913 6.89928 3.93945 6.75052C3.93978 6.60176 3.99902 6.45919 4.10421 6.35401C4.20939 6.24882 4.35196 6.18958 4.50072 6.18926C4.64948 6.18893 4.79231 6.24754 4.89796 6.35227Z" fill="#6A7282"/>
</svg>
